<svg width="101" height="16" viewBox="0 0 101 16" fill="none" xmlns="http://www.w3.org/2000/svg">
<path d="M1.04 15.1162C0.906667 15.1162 0.793333 15.0695 0.7 14.9762C0.606667 14.8829 0.56 14.7695 0.56 14.6362V1.59621C0.56 1.46288 0.606667 1.34954 0.7 1.25621C0.793333 1.16288 0.906667 1.11621 1.04 1.11621H2.9C3.03333 1.11621 3.14667 1.16288 3.24 1.25621C3.33333 1.34954 3.38 1.46288 3.38 1.59621V12.7362H9.72C9.86667 12.7362 9.98667 12.7829 10.08 12.8762C10.1733 12.9695 10.22 13.0895 10.22 13.2362V14.6362C10.22 14.7695 10.1733 14.8829 10.08 14.9762C9.98667 15.0695 9.86667 15.1162 9.72 15.1162H1.04ZM14.9416 15.3162C14.2482 15.3162 13.6216 15.1829 13.0616 14.9162C12.5016 14.6362 12.0549 14.2695 11.7216 13.8162C11.4016 13.3495 11.2416 12.8295 11.2416 12.2562C11.2416 11.3229 11.6149 10.5829 12.3616 10.0362C13.1216 9.47621 14.1216 9.10288 15.3616 8.91621L18.1016 8.51621V8.09621C18.1016 7.53621 17.9616 7.10288 17.6816 6.79621C17.4016 6.48954 16.9216 6.33621 16.2416 6.33621C15.7616 6.33621 15.3682 6.43621 15.0616 6.63621C14.7682 6.82288 14.5482 7.07621 14.4016 7.39621C14.2949 7.56954 14.1416 7.65621 13.9416 7.65621H12.3616C12.2149 7.65621 12.1016 7.61621 12.0216 7.53621C11.9549 7.45621 11.9216 7.34954 11.9216 7.21621C11.9349 7.00288 12.0216 6.74288 12.1816 6.43621C12.3416 6.12954 12.5949 5.83621 12.9416 5.55621C13.2882 5.26288 13.7349 5.01621 14.2816 4.81621C14.8282 4.61621 15.4882 4.51621 16.2616 4.51621C17.1016 4.51621 17.8082 4.62288 18.3816 4.83621C18.9682 5.03621 19.4349 5.30954 19.7816 5.65621C20.1282 6.00288 20.3816 6.40954 20.5416 6.87621C20.7016 7.34288 20.7816 7.83621 20.7816 8.35621V14.6362C20.7816 14.7695 20.7349 14.8829 20.6416 14.9762C20.5482 15.0695 20.4349 15.1162 20.3016 15.1162H18.6816C18.5349 15.1162 18.4149 15.0695 18.3216 14.9762C18.2416 14.8829 18.2016 14.7695 18.2016 14.6362V13.8562C18.0282 14.1095 17.7949 14.3495 17.5016 14.5762C17.2082 14.7895 16.8482 14.9695 16.4216 15.1162C16.0082 15.2495 15.5149 15.3162 14.9416 15.3162ZM15.6216 13.4162C16.0882 13.4162 16.5082 13.3162 16.8816 13.1162C17.2682 12.9162 17.5682 12.6095 17.7816 12.1962C18.0082 11.7695 18.1216 11.2362 18.1216 10.5962V10.1762L16.1216 10.4962C15.3349 10.6162 14.7482 10.8095 14.3616 11.0762C13.9749 11.3429 13.7816 11.6695 13.7816 12.0562C13.7816 12.3495 13.8682 12.6029 14.0416 12.8162C14.2282 13.0162 14.4616 13.1695 14.7416 13.2762C15.0216 13.3695 15.3149 13.4162 15.6216 13.4162ZM27.2873 15.3162C26.4873 15.3162 25.8007 15.2229 25.2273 15.0362C24.6673 14.8495 24.2073 14.6162 23.8473 14.3362C23.4873 14.0562 23.2207 13.7762 23.0473 13.4962C22.874 13.2162 22.7807 12.9829 22.7673 12.7962C22.754 12.6495 22.794 12.5362 22.8873 12.4562C22.994 12.3629 23.1073 12.3162 23.2273 12.3162H24.8073C24.8607 12.3162 24.9073 12.3229 24.9473 12.3362C24.9873 12.3495 25.0407 12.3895 25.1073 12.4562C25.2807 12.6029 25.4607 12.7562 25.6473 12.9162C25.8473 13.0762 26.0807 13.2162 26.3473 13.3362C26.614 13.4429 26.9473 13.4962 27.3473 13.4962C27.8673 13.4962 28.3007 13.3962 28.6473 13.1962C29.0073 12.9829 29.1873 12.6829 29.1873 12.2962C29.1873 12.0162 29.1073 11.7895 28.9473 11.6162C28.8007 11.4429 28.5207 11.2895 28.1073 11.1562C27.694 11.0095 27.1073 10.8562 26.3473 10.6962C25.6007 10.5229 24.9807 10.3029 24.4873 10.0362C23.994 9.76954 23.6273 9.43621 23.3873 9.03621C23.1473 8.63621 23.0273 8.16954 23.0273 7.63621C23.0273 7.11621 23.1807 6.62288 23.4873 6.15621C23.8073 5.67621 24.274 5.28288 24.8873 4.97621C25.514 4.66954 26.2873 4.51621 27.2073 4.51621C27.9273 4.51621 28.554 4.60954 29.0873 4.79621C29.6207 4.96954 30.0607 5.18954 30.4073 5.45621C30.7673 5.72288 31.0407 5.99621 31.2273 6.27621C31.414 6.54288 31.514 6.77621 31.5273 6.97621C31.5407 7.12288 31.5007 7.24288 31.4073 7.33621C31.314 7.41621 31.2073 7.45621 31.0873 7.45621H29.6073C29.5407 7.45621 29.4807 7.44288 29.4273 7.41621C29.374 7.38954 29.3207 7.35621 29.2673 7.31621C29.1207 7.18288 28.9607 7.04288 28.7873 6.89621C28.614 6.74954 28.4007 6.62288 28.1473 6.51621C27.9073 6.39621 27.5873 6.33621 27.1873 6.33621C26.6807 6.33621 26.294 6.44954 26.0273 6.67621C25.7607 6.88954 25.6273 7.16288 25.6273 7.49621C25.6273 7.72288 25.6873 7.92288 25.8073 8.09621C25.9407 8.25621 26.2007 8.40954 26.5873 8.55621C26.974 8.70288 27.5607 8.85621 28.3473 9.01621C29.2407 9.17621 29.9473 9.41621 30.4673 9.73621C31.0007 10.0429 31.374 10.4029 31.5873 10.8162C31.814 11.2162 31.9273 11.6629 31.9273 12.1562C31.9273 12.7562 31.7473 13.2962 31.3873 13.7762C31.0407 14.2562 30.5207 14.6362 29.8273 14.9162C29.1473 15.1829 28.3007 15.3162 27.2873 15.3162ZM34.4919 15.1162C34.3585 15.1162 34.2452 15.0695 34.1519 14.9762C34.0585 14.8829 34.0119 14.7695 34.0119 14.6362V1.39621C34.0119 1.26288 34.0585 1.14954 34.1519 1.05621C34.2452 0.962877 34.3585 0.91621 34.4919 0.91621H36.1519C36.2852 0.91621 36.3985 0.962877 36.4919 1.05621C36.5852 1.14954 36.6319 1.26288 36.6319 1.39621V14.6362C36.6319 14.7695 36.5852 14.8829 36.4919 14.9762C36.3985 15.0695 36.2852 15.1162 36.1519 15.1162H34.4919ZM43.7648 15.3162C42.2848 15.3162 41.1115 14.8895 40.2448 14.0362C39.3782 13.1829 38.9115 11.9695 38.8448 10.3962C38.8315 10.2629 38.8248 10.0962 38.8248 9.89621C38.8248 9.68288 38.8315 9.51621 38.8448 9.39621C38.8982 8.39621 39.1248 7.52954 39.5248 6.79621C39.9382 6.06288 40.5048 5.50288 41.2248 5.11621C41.9448 4.71621 42.7915 4.51621 43.7648 4.51621C44.8448 4.51621 45.7515 4.74288 46.4848 5.19621C47.2182 5.63621 47.7715 6.25621 48.1448 7.05621C48.5182 7.84288 48.7048 8.75621 48.7048 9.79621V10.2162C48.7048 10.3495 48.6582 10.4629 48.5648 10.5562C48.4715 10.6495 48.3515 10.6962 48.2048 10.6962H41.5648C41.5648 10.6962 41.5648 10.7162 41.5648 10.7562C41.5648 10.7962 41.5648 10.8295 41.5648 10.8562C41.5782 11.3229 41.6648 11.7562 41.8248 12.1562C41.9982 12.5429 42.2448 12.8562 42.5648 13.0962C42.8982 13.3362 43.2915 13.4562 43.7448 13.4562C44.1182 13.4562 44.4315 13.4029 44.6848 13.2962C44.9382 13.1762 45.1448 13.0429 45.3048 12.8962C45.4648 12.7495 45.5782 12.6295 45.6448 12.5362C45.7648 12.3762 45.8582 12.2829 45.9248 12.2562C46.0048 12.2162 46.1182 12.1962 46.2648 12.1962H47.9848C48.1182 12.1962 48.2248 12.2362 48.3048 12.3162C48.3982 12.3962 48.4382 12.4962 48.4248 12.6162C48.4115 12.8295 48.2982 13.0895 48.0848 13.3962C47.8848 13.7029 47.5915 14.0029 47.2048 14.2962C46.8182 14.5895 46.3315 14.8362 45.7448 15.0362C45.1715 15.2229 44.5115 15.3162 43.7648 15.3162ZM41.5648 9.01621H45.9848V8.95621C45.9848 8.43621 45.8982 7.98288 45.7248 7.59621C45.5515 7.20954 45.2982 6.90288 44.9648 6.67621C44.6315 6.44954 44.2315 6.33621 43.7648 6.33621C43.2982 6.33621 42.8982 6.44954 42.5648 6.67621C42.2315 6.90288 41.9782 7.20954 41.8048 7.59621C41.6448 7.98288 41.5648 8.43621 41.5648 8.95621V9.01621ZM54.7678 15.3162C53.9678 15.3162 53.2811 15.2229 52.7078 15.0362C52.1478 14.8495 51.6878 14.6162 51.3278 14.3362C50.9678 14.0562 50.7011 13.7762 50.5278 13.4962C50.3545 13.2162 50.2611 12.9829 50.2478 12.7962C50.2345 12.6495 50.2745 12.5362 50.3678 12.4562C50.4745 12.3629 50.5878 12.3162 50.7078 12.3162H52.2878C52.3411 12.3162 52.3878 12.3229 52.4278 12.3362C52.4678 12.3495 52.5211 12.3895 52.5878 12.4562C52.7611 12.6029 52.9411 12.7562 53.1278 12.9162C53.3278 13.0762 53.5611 13.2162 53.8278 13.3362C54.0945 13.4429 54.4278 13.4962 54.8278 13.4962C55.3478 13.4962 55.7811 13.3962 56.1278 13.1962C56.4878 12.9829 56.6678 12.6829 56.6678 12.2962C56.6678 12.0162 56.5878 11.7895 56.4278 11.6162C56.2811 11.4429 56.0011 11.2895 55.5878 11.1562C55.1745 11.0095 54.5878 10.8562 53.8278 10.6962C53.0811 10.5229 52.4611 10.3029 51.9678 10.0362C51.4745 9.76954 51.1078 9.43621 50.8678 9.03621C50.6278 8.63621 50.5078 8.16954 50.5078 7.63621C50.5078 7.11621 50.6611 6.62288 50.9678 6.15621C51.2878 5.67621 51.7545 5.28288 52.3678 4.97621C52.9945 4.66954 53.7678 4.51621 54.6878 4.51621C55.4078 4.51621 56.0345 4.60954 56.5678 4.79621C57.1011 4.96954 57.5411 5.18954 57.8878 5.45621C58.2478 5.72288 58.5211 5.99621 58.7078 6.27621C58.8945 6.54288 58.9945 6.77621 59.0078 6.97621C59.0211 7.12288 58.9811 7.24288 58.8878 7.33621C58.7945 7.41621 58.6878 7.45621 58.5678 7.45621H57.0878C57.0211 7.45621 56.9611 7.44288 56.9078 7.41621C56.8545 7.38954 56.8011 7.35621 56.7478 7.31621C56.6011 7.18288 56.4411 7.04288 56.2678 6.89621C56.0945 6.74954 55.8811 6.62288 55.6278 6.51621C55.3878 6.39621 55.0678 6.33621 54.6678 6.33621C54.1611 6.33621 53.7745 6.44954 53.5078 6.67621C53.2411 6.88954 53.1078 7.16288 53.1078 7.49621C53.1078 7.72288 53.1678 7.92288 53.2878 8.09621C53.4211 8.25621 53.6811 8.40954 54.0678 8.55621C54.4545 8.70288 55.0411 8.85621 55.8278 9.01621C56.7211 9.17621 57.4278 9.41621 57.9478 9.73621C58.4811 10.0429 58.8545 10.4029 59.0678 10.8162C59.2945 11.2162 59.4078 11.6629 59.4078 12.1562C59.4078 12.7562 59.2278 13.2962 58.8678 13.7762C58.5211 14.2562 58.0011 14.6362 57.3078 14.9162C56.6278 15.1829 55.7811 15.3162 54.7678 15.3162ZM65.5523 15.1162C65.3257 15.1162 65.1457 15.0562 65.0123 14.9362C64.879 14.8162 64.7857 14.6762 64.7323 14.5162L60.6523 1.71621C60.6257 1.64954 60.6123 1.58954 60.6123 1.53621C60.6123 1.42954 60.6523 1.33621 60.7323 1.25621C60.8257 1.16288 60.9323 1.11621 61.0523 1.11621H63.5323C63.7457 1.11621 63.9123 1.17621 64.0323 1.29621C64.1523 1.41621 64.2257 1.52954 64.2523 1.63621L67.0723 10.8762L69.9123 1.63621C69.9523 1.52954 70.0257 1.41621 70.1323 1.29621C70.2523 1.17621 70.419 1.11621 70.6323 1.11621H73.1123C73.2323 1.11621 73.3323 1.16288 73.4123 1.25621C73.5057 1.33621 73.5523 1.42954 73.5523 1.53621C73.5523 1.58954 73.539 1.64954 73.5123 1.71621L69.4323 14.5162C69.379 14.6762 69.2857 14.8162 69.1523 14.9362C69.0323 15.0562 68.8523 15.1162 68.6123 15.1162H65.5523ZM75.9195 15.1162C75.7729 15.1162 75.6529 15.0695 75.5595 14.9762C75.4662 14.8829 75.4195 14.7629 75.4195 14.6162V1.61621C75.4195 1.46954 75.4662 1.34954 75.5595 1.25621C75.6529 1.16288 75.7729 1.11621 75.9195 1.11621H81.5195C82.6262 1.11621 83.5862 1.28954 84.3995 1.63621C85.2262 1.96954 85.8662 2.47621 86.3195 3.15621C86.7862 3.83621 87.0195 4.69621 87.0195 5.73621C87.0195 6.76288 86.7862 7.60954 86.3195 8.27621C85.8662 8.94288 85.2262 9.43621 84.3995 9.75621C83.5862 10.0762 82.6262 10.2362 81.5195 10.2362H79.1395V14.6162C79.1395 14.7629 79.0862 14.8829 78.9795 14.9762C78.8862 15.0695 78.7662 15.1162 78.6195 15.1162H75.9195ZM79.0795 7.47621H81.4195C81.9929 7.47621 82.4462 7.32954 82.7795 7.03621C83.1262 6.74288 83.2995 6.29621 83.2995 5.69621C83.2995 5.18954 83.1529 4.76288 82.8595 4.41621C82.5662 4.06954 82.0862 3.89621 81.4195 3.89621H79.0795V7.47621ZM89.4352 15.1162C89.2885 15.1162 89.1685 15.0695 89.0752 14.9762C88.9818 14.8829 88.9352 14.7629 88.9352 14.6162V1.61621C88.9352 1.46954 88.9818 1.34954 89.0752 1.25621C89.1685 1.16288 89.2885 1.11621 89.4352 1.11621H91.5552C91.7818 1.11621 91.9418 1.16954 92.0352 1.27621C92.1418 1.36954 92.2085 1.44288 92.2352 1.49621L97.1152 9.19621V1.61621C97.1152 1.46954 97.1618 1.34954 97.2552 1.25621C97.3485 1.16288 97.4685 1.11621 97.6152 1.11621H100.015C100.162 1.11621 100.282 1.16288 100.375 1.25621C100.468 1.34954 100.515 1.46954 100.515 1.61621V14.6162C100.515 14.7495 100.468 14.8695 100.375 14.9762C100.282 15.0695 100.162 15.1162 100.015 15.1162H97.8752C97.6618 15.1162 97.5018 15.0629 97.3952 14.9562C97.3018 14.8495 97.2418 14.7762 97.2152 14.7362L92.3352 7.33621V14.6162C92.3352 14.7629 92.2885 14.8829 92.1952 14.9762C92.1018 15.0695 91.9818 15.1162 91.8352 15.1162H89.4352Z" fill="#0B132A"/>
</svg>
